/* XPM */
static char * n2_xpm[] = {
"50 50 86 1",
" 	c None",
".	c #0000FF",
"+	c #0005F7",
"@	c #011DD5",
"#	c #0235B2",
"$	c #034898",
"%	c #04597F",
"&	c #046371",
"*	c #046A68",
"=	c #046969",
"-	c #046173",
";	c #045881",
">	c #0342A0",
",	c #0129C4",
"'	c #0007F4",
")	c #0010E7",
"!	c #0232B7",
"~	c #035487",
"{	c #046B66",
"]	c #056D64",
"^	c #0341A2",
"/	c #000AF0",
"(	c #046470",
"_	c #0122CE",
":	c #046C65",
"<	c #0126C8",
"[	c #035584",
"}	c #023BA9",
"|	c #0123CB",
"1	c #0011E6",
"2	c #0008F2",
"3	c #0002FB",
"4	c #0116DE",
"5	c #0233B5",
"6	c #046076",
"7	c #046A67",
"8	c #0118DC",
"9	c #045C7B",
"0	c #0233B6",
"a	c #000DEB",
"b	c #023AAB",
"c	c #045783",
"d	c #0000FD",
"e	c #0000FE",
"f	c #0234B4",
"g	c #011FD2",
"h	c #035585",
"i	c #0240A3",
"j	c #0126C7",
"k	c #000BED",
"l	c #0002FA",
"m	c #000CEC",
"n	c #045B7D",
"o	c #03469A",
"p	c #03449D",
"q	c #046968",
"r	c #012AC2",
"s	c #034996",
"t	c #0014E1",
"u	c #000BEE",
"v	c #046174",
"w	c #011CD6",
"x	c #045A7E",
"y	c #023FA5",
"z	c #0003F9",
"A	c #03528A",
"B	c #034F8E",
"C	c #034897",
"D	c #0001FD",
"E	c #034C92",
"F	c #0001FC",
"G	c #034A94",
"H	c #034E8F",
"I	c #03508C",
"J	c #034799",
"K	c #035388",
"L	c #0004F8",
"M	c #03459B",
"N	c #0005F6",
"O	c #03439E",
"P	c #023EA5",
"Q	c #045D7A",
"R	c #045F77",
"S	c #000CED",
"T	c #0238AE",
"U	c #000EEA",
"..................................................",
"..................................................",
"..................................................",
"..................................................",
"..................................................",
"..................................................",
"................+@#$%&*=-;>,'.....................",
".............)!~{]]]]]]]]]]]=^/...................",
".............]]]]]]]]]]]]]]]]](_..................",
".............]]]]]]]]]]]]]]]]]]:<.................",
".............]]]]][}|123'456]]]]78................",
".............]]90a.........3b]]]]cd...............",
".............~_e.............f]]]]g...............",
".............................eh]]]i...............",
"..............................j]]]%...............",
"..............................k]]](...............",
"..............................l]]]7...............",
"..............................m]]](...............",
"..............................g]]]n...............",
"..............................o]]]p...............",
".............................kq]]]r...............",
".............................s]]]='...............",
"............................,]]]]b................",
"...........................t=]]]6+................",
"..........................uv]]]:w.................",
".........................'x]]]]f..................",
"........................+h]]]]y...................",
".......................zA]]]]pe...................",
"......................lB]]]]CD....................",
".....................3E]]]]E3.....................",
"....................FG]]]]Hl......................",
"...................DC]]]]Iz.......................",
"..................DJ]]]]KL........................",
".................dM]]]][N.........................",
"................eO]]]];'..........................",
"...............e^]]]]x2...........................",
"...............P]]]]Q/............................",
"..............}]]]]RS.............................",
".............T]]]]vU..............................",
".............]]]]]]]]]]]]]]]]]]]]]]t..............",
".............]]]]]]]]]]]]]]]]]]]]]]t..............",
".............]]]]]]]]]]]]]]]]]]]]]]t..............",
".............]]]]]]]]]]]]]]]]]]]]]]t..............",
"..................................................",
"..................................................",
"..................................................",
"..................................................",
"..................................................",
"..................................................",
".................................................."};
