/* XPM */
static char * n4_xpm[] = {
"50 50 52 1",
" 	c None",
".	c #0000FF",
"+	c #022DBE",
"@	c #056D64",
"#	c #000BED",
"$	c #04676B",
"%	c #034C92",
"&	c #0125C9",
"*	c #03459B",
"=	c #0007F4",
"-	c #046371",
";	c #04656E",
">	c #0008F2",
",	c #03449D",
"'	c #012AC2",
")	c #011DD5",
"!	c #035289",
"~	c #0000FE",
"{	c #0004F8",
"]	c #045E78",
"^	c #046A67",
"/	c #0011E5",
"(	c #023CA9",
"_	c #0238AE",
":	c #0116DE",
"<	c #046B65",
"[	c #045E79",
"}	c #0003FA",
"|	c #0001FC",
"1	c #04597F",
"2	c #0234B4",
"3	c #03469A",
"4	c #0010E7",
"5	c #046A68",
"6	c #0009F1",
"7	c #012BC1",
"8	c #022CC0",
"9	c #035387",
"0	c #000BEF",
"a	c #04666D",
"b	c #0012E4",
"c	c #034A94",
"d	c #0239AD",
"e	c #0123CB",
"f	c #0003F9",
"g	c #046272",
"h	c #011DD4",
"i	c #03439F",
"j	c #011CD6",
"k	c #023AAB",
"l	c #035487",
"m	c #046B66",
"..................................................",
"..................................................",
"..................................................",
"..................................................",
"..................................................",
"..................................................",
"..................................................",
".........................+@@@@@@..................",
"........................#$@@@@@@..................",
"........................%@@@@@@@..................",
".......................&@@@*@@@@..................",
"......................=-@@;>@@@@..................",
"......................,@@@'.@@@@..................",
".....................)@@@!~.@@@@..................",
"....................{]@@^/..@@@@..................",
"....................(@@@_...@@@@..................",
"...................:<@@[}...@@@@..................",
"..................|1@@@)....@@@@..................",
"..................2@@@3.....@@@@..................",
".................45@@;6.....@@@@..................",
"................~!@@@7......@@@@..................",
"................8@@@9~......@@@@..................",
"...............0a@@^b.......@@@@..................",
"...............c@@@d........@@@@..................",
"..............e@@@]f........@@@@..................",
".............=g@@@h.........@@@@..................",
".............i@@@3..........@@@@..................",
"............j@@@a6..........@@@@..................",
"...........f[@@@8...........@@@@..................",
"...........k@@@l~...........@@@@..................",
"...........<@@mb............@@@@..................",
"...........@@@@@@@@@@@@@@@@@@@@@@@@@@.............",
"...........@@@@@@@@@@@@@@@@@@@@@@@@@@.............",
"...........@@@@@@@@@@@@@@@@@@@@@@@@@@.............",
"...........@@@@@@@@@@@@@@@@@@@@@@@@@@.............",
"............................@@@@..................",
"............................@@@@..................",
"............................@@@@..................",
"............................@@@@..................",
"............................@@@@..................",
"............................@@@@..................",
"............................@@@@..................",
"............................@@@@..................",
"..................................................",
"..................................................",
"..................................................",
"..................................................",
"..................................................",
"..................................................",
".................................................."};
