/* XPM */
static char * n5_xpm[] = {
"50 50 78 1",
" 	c None",
".	c #0000FF",
"+	c #056D64",
"@	c #022EBD",
"#	c #034995",
"$	c #045E79",
"%	c #04676C",
"&	c #046A67",
"*	c #046273",
"=	c #04597F",
"-	c #034799",
";	c #022BC1",
">	c #000DEB",
",	c #046C65",
"'	c #034798",
")	c #0013E3",
"!	c #046B66",
"~	c #0230BA",
"{	c #03439F",
"]	c #04656E",
"^	c #03459B",
"/	c #012AC2",
"(	c #0116DF",
"_	c #0009F1",
":	c #0002FB",
"<	c #0004F8",
"[	c #000CEC",
"}	c #0120D1",
"|	c #023BA9",
"1	c #04646F",
"2	c #0233B6",
"3	c #035586",
"4	c #0124CA",
"5	c #0001FC",
"6	c #0238AE",
"7	c #0122CE",
"8	c #046B65",
"9	c #034D90",
"0	c #0231B8",
"a	c #0011E5",
"b	c #045D79",
"c	c #0233B5",
"d	c #034C91",
"e	c #0116DE",
"f	c #045B7C",
"g	c #046470",
"h	c #0117DE",
"i	c #0235B3",
"j	c #045E78",
"k	c #0230B9",
"l	c #0234B4",
"m	c #0012E4",
"n	c #000FE8",
"o	c #0126C8",
"p	c #046C64",
"q	c #034F8E",
"r	c #0240A3",
"s	c #0014E2",
"t	c #0006F5",
"u	c #023DA7",
"v	c #035683",
"w	c #023AAB",
"x	c #0010E7",
"y	c #0008F2",
"z	c #0005F6",
"A	c #000EEA",
"B	c #0123CC",
"C	c #04676B",
"D	c #04686A",
"E	c #023BAA",
"F	c #046075",
"G	c #023FA5",
"H	c #0011E6",
"I	c #022DBD",
"J	c #03439E",
"K	c #046173",
"L	c #035387",
"M	c #023CA9",
"..................................................",
"..................................................",
"..................................................",
"..................................................",
"..................................................",
"..................................................",
"..................................................",
"...............++++++++++++++++++.................",
"...............++++++++++++++++++.................",
"...............++++++++++++++++++.................",
"...............++++++++++++++++++.................",
"...............++++...............................",
"...............++++...............................",
"...............++++...............................",
"...............++++...............................",
"...............++++...............................",
"...............++++...............................",
"...............++++...............................",
"...............++++...............................",
"...............++++@#$%&*=-;>.....................",
"...............+++++++++++++,')...................",
"...............+++++++++++++++!~..................",
"...............+++++++++++++++++{.................",
"...............++]^/(_:<[}|1+++++2................",
"...............345.........<6,+++,(...............",
".............................78+++9...............",
"..............................0++++a..............",
"..............................5b+++~..............",
"...............................c+++d..............",
"...............................e+++f..............",
"..............................._+++g..............",
"...............................:+++&..............",
"..............................._+++g..............",
"...............................h+++f..............",
"...............................i+++9..............",
"..............................:j+++k..............",
"..............................l++++m..............",
".............9n..............op+++q...............",
".............+&rs..........tu++++p(...............",
".............++++vw7xy5zABrC+++++c................",
".............+++++++++++++++++++r.................",
".............+++++++++++++++++D/..................",
".............)EF++++++++++++CGA...................",
"................HIJ3KD!]$LMBt.....................",
"..................................................",
"..................................................",
"..................................................",
"..................................................",
"..................................................",
".................................................."};
