/* XPM */
static char * n8_xpm[] = {
"50 50 107 2",
"  	c None",
". 	c #0000FF",
"+ 	c #0000FE",
"@ 	c #011CD6",
"# 	c #0239AD",
"$ 	c #03508C",
"% 	c #045F77",
"& 	c #04666D",
"* 	c #046B66",
"= 	c #0239AC",
"- 	c #011DD5",
"; 	c #012AC2",
"> 	c #045E79",
", 	c #056D64",
"' 	c #0007F4",
") 	c #034F8D",
"! 	c #034F8E",
"~ 	c #0006F5",
"{ 	c #0005F7",
"] 	c #035585",
"^ 	c #0240A2",
"/ 	c #0129C4",
"( 	c #0011E5",
"_ 	c #0001FC",
": 	c #0012E4",
"< 	c #0129C3",
"[ 	c #0240A3",
"} 	c #046C65",
"| 	c #046272",
"1 	c #011BD7",
"2 	c #011DD4",
"3 	c #046470",
"4 	c #0238AE",
"5 	c #04686A",
"6 	c #0011E6",
"7 	c #0013E3",
"8 	c #046968",
"9 	c #0237AF",
"0 	c #035683",
"a 	c #035684",
"b 	c #046371",
"c 	c #0014E2",
"d 	c #0014E1",
"e 	c #0004F8",
"f 	c #046A67",
"g 	c #04656E",
"h 	c #045881",
"i 	c #045783",
"j 	c #023DA7",
"k 	c #023DA8",
"l 	c #0010E7",
"m 	c #046969",
"n 	c #046C64",
"o 	c #03469B",
"p 	c #046173",
"q 	c #011AD9",
"r 	c #03449D",
"s 	c #0005F6",
"t 	c #045A7E",
"u 	c #034D90",
"v 	c #0128C5",
"w 	c #0001FD",
"x 	c #045880",
"y 	c #034C92",
"z 	c #034B94",
"A 	c #034C91",
"B 	c #0000FD",
"C 	c #0236B1",
"D 	c #0237B0",
"E 	c #0342A0",
"F 	c #034799",
"G 	c #0126C7",
"H 	c #034798",
"I 	c #022CBF",
"J 	c #034E8F",
"K 	c #000CED",
"L 	c #03469A",
"M 	c #022DBD",
"N 	c #045F76",
"O 	c #0003F9",
"P 	c #046076",
"Q 	c #022DBE",
"R 	c #022FBA",
"S 	c #046175",
"T 	c #046075",
"U 	c #035586",
"V 	c #022FBB",
"W 	c #0230B9",
"X 	c #035486",
"Y 	c #0003FA",
"Z 	c #03459B",
"` 	c #034898",
" .	c #0119DA",
"..	c #035487",
"+.	c #000BEE",
"@.	c #000DEC",
"#.	c #035387",
"$.	c #0118DC",
"%.	c #046A68",
"&.	c #0126C8",
"*.	c #000FE8",
"=.	c #0117DC",
"-.	c #000BED",
";.	c #0127C7",
">.	c #023FA5",
",.	c #04676C",
"'.	c #046B65",
". . . . . . . . . . . . . . . . . . . . . . . . . . . . . . . . . . . . . . . . . . . . . . . . . . ",
". . . . . . . . . . . . . . . . . . . . . . . . . . . . . . . . . . . . . . . . . . . . . . . . . . ",
". . . . . . . . . . . . . . . . . . . . . . . . . . . . . . . . . . . . . . . . . . . . . . . . . . ",
". . . . . . . . . . . . . . . . . . . . . . . . . . . . . . . . . . . . . . . . . . . . . . . . . . ",
". . . . . . . . . . . . . . . . . . . . . . . . . . . . . . . . . . . . . . . . . . . . . . . . . . ",
". . . . . . . . . . . . . . . . . . . . . . . . . . . . . . . . . . . . . . . . . . . . . . . . . . ",
". . . . . . . . . . . . . . . . . . + @ # $ % & * & % $ = - + . . . . . . . . . . . . . . . . . . . ",
". . . . . . . . . . . . . . . . . ; > , , , , , , , , , , , > ; . . . . . . . . . . . . . . . . . . ",
". . . . . . . . . . . . . . . ' ) , , , , , , , , , , , , , , , ! ~ . . . . . . . . . . . . . . . . ",
". . . . . . . . . . . . . . { ] , , , , , , , , , , , , , , , , , ] { . . . . . . . . . . . . . . . ",
". . . . . . . . . . . . . . ^ , , , , , ! / ( ~ _ ~ : < $ , , , , , [ . . . . . . . . . . . . . . . ",
". . . . . . . . . . . . . : } , , , | 1 . . . . . . . . . 2 3 , , , } : . . . . . . . . . . . . . . ",
". . . . . . . . . . . . . 4 , , , 5 6 . . . . . . . . . . . 7 8 , , , 9 . . . . . . . . . . . . . . ",
". . . . . . . . . . . . . 0 , , , 4 . . . . . . . . . . . . . = , , , a . . . . . . . . . . . . . . ",
". . . . . . . . . . . . . b , , , c . . . . . . . . . . . . . d , , , | . . . . . . . . . . . . . . ",
". . . . . . . . . . . . . * , , , e . . . . . . . . . . . . . { , , , f . . . . . . . . . . . . . . ",
". . . . . . . . . . . . . & , , , e . . . . . . . . . . . . . { , , , g . . . . . . . . . . . . . . ",
". . . . . . . . . . . . . h , , , c . . . . . . . . . . . . . d , , , i . . . . . . . . . . . . . . ",
". . . . . . . . . . . . . j , , , 4 . . . . . . . . . . . . . = , , , k . . . . . . . . . . . . . . ",
". . . . . . . . . . . . . d , , , 5 l . . . . . . . . . . . : m , , n 7 . . . . . . . . . . . . . . ",
". . . . . . . . . . . . . . o , , , p q . . . . . . . . . @ b , , , r . . . . . . . . . . . . . . . ",
". . . . . . . . . . . . . . s t , , , n u v 6 s w s ( / ) , , , , x { . . . . . . . . . . . . . . . ",
". . . . . . . . . . . . . . . ' y , , , , , , , , , , , , , , , z ~ . . . . . . . . . . . . . . . . ",
". . . . . . . . . . . . . . . . . - A , , , , , , , , , , , y @ . . . . . . . . . . . . . . . . . . ",
". . . . . . . . . . . . . . . . ( o 5 , , , , , , , , , , , 5 o ( . . . . . . . . . . . . . . . . . ",
". . . . . . . . . . . . . . B C } , , , , , , , , , , , , , , , } D B . . . . . . . . . . . . . . . ",
". . . . . . . . . . . . . . E , , , , f F G l ~ _ ' 6 G H f , , , , E . . . . . . . . . . . . . . . ",
". . . . . . . . . . . . . I , , , , J K . . . . . . . . . K ! , , , , I . . . . . . . . . . . . . . ",
". . . . . . . . . . . . ~ & , , , L B . . . . . . . . . . . B L , , , & s . . . . . . . . . . . . . ",
". . . . . . . . . . . . M , , , N O . . . . . . . . . . . . . O P , , , Q . . . . . . . . . . . . . ",
". . . . . . . . . . . . y , , , R . . . . . . . . . . . . . . . R , , , y . . . . . . . . . . . . . ",
". . . . . . . . . . . . S , , , 6 . . . . . . . . . . . . . . . 6 , , , T . . . . . . . . . . . . . ",
". . . . . . . . . . . . 8 , , , e . . . . . . . . . . . . . . . { , , , m . . . . . . . . . . . . . ",
". . . . . . . . . . . . m , , , e . . . . . . . . . . . . . . . { , , , 5 . . . . . . . . . . . . . ",
". . . . . . . . . . . . T , , , 6 . . . . . . . . . . . . . . . ( , , , N . . . . . . . . . . . . . ",
". . . . . . . . . . . . U , , , V . . . . . . . . . . . . . . . W , , , X . . . . . . . . . . . . . ",
". . . . . . . . . . . . = , , , % Y . . . . . . . . . . . . . e T , , , # . . . . . . . . . . . . . ",
". . . . . . . . . . . . q , , , , Z B . . . . . . . . . . . w ` , , , ,  .. . . . . . . . . . . . . ",
". . . . . . . . . . . . . .., , , , u +.. . . . . . . . . @.) , , , , #.. . . . . . . . . . . . . . ",
". . . . . . . . . . . . . $.* , , , , %.L &.*.~ w ~ l G ` f , , , , * =.. . . . . . . . . . . . . . ",
". . . . . . . . . . . . . . / , , , , , , , , , , , , , , , , , , , v . . . . . . . . . . . . . . . ",
". . . . . . . . . . . . . . . &.& , , , , , , , , , , , , , , , & &.. . . . . . . . . . . . . . . . ",
". . . . . . . . . . . . . . . . -.E 5 , , , , , , , , , , , 5 E -.. . . . . . . . . . . . . . . . . ",
". . . . . . . . . . . . . . . . . . ~ ;.>.] P ,.'.,.P ] >.;.~ . . . . . . . . . . . . . . . . . . . ",
". . . . . . . . . . . . . . . . . . . . . . . . . . . . . . . . . . . . . . . . . . . . . . . . . . ",
". . . . . . . . . . . . . . . . . . . . . . . . . . . . . . . . . . . . . . . . . . . . . . . . . . ",
". . . . . . . . . . . . . . . . . . . . . . . . . . . . . . . . . . . . . . . . . . . . . . . . . . ",
". . . . . . . . . . . . . . . . . . . . . . . . . . . . . . . . . . . . . . . . . . . . . . . . . . ",
". . . . . . . . . . . . . . . . . . . . . . . . . . . . . . . . . . . . . . . . . . . . . . . . . . ",
". . . . . . . . . . . . . . . . . . . . . . . . . . . . . . . . . . . . . . . . . . . . . . . . . . "};
