/* XPM */
static char * ns_xpm[] = {
"50 50 52 1",
" 	c None",
".	c #0000FF",
"+	c #0127C6",
"@	c #056D64",
"#	c #045B7C",
"$	c #034A94",
"%	c #0238AE",
"&	c #0004F8",
"*	c #046969",
"=	c #0115E0",
"-	c #0123CC",
";	c #045F76",
">	c #03469A",
",	c #023DA8",
"'	c #0002FB",
")	c #04666D",
"!	c #011AD9",
"~	c #011FD2",
"{	c #046371",
"]	c #0000FD",
"^	c #0342A0",
"/	c #0341A2",
"(	c #011ED3",
"_	c #023DA7",
":	c #03469B",
"<	c #046076",
"[	c #0123CD",
"}	c #0116DF",
"|	c #04686A",
"1	c #0239AD",
"2	c #034A95",
"3	c #0127C7",
"4	c #0011E5",
"5	c #046A67",
"6	c #0006F5",
"7	c #0235B3",
"8	c #034E8F",
"9	c #045881",
"0	c #022BC1",
"a	c #000DEB",
"b	c #046C65",
"c	c #0009F1",
"d	c #0230BA",
"e	c #035289",
"f	c #035388",
"g	c #000DEC",
"h	c #022CC0",
"i	c #045782",
"j	c #034F8E",
"k	c #0234B4",
"l	c #0011E6",
"m	c #0341A1",
"..................................................",
"..................................................",
"..................................................",
"..................................................",
"..................................................",
"..................................................",
"..................................................",
".....................+@@@#........................",
".....................$@@@%........................",
"....................&*@@@=........................",
"....................-@@@;.........................",
"....................>@@@,.........................",
"...................')@@@!.........................",
"...................~@@@{].........................",
"...................^@@@/..........................",
"..................]{@@@(..........................",
"..................!@@@)'..........................",
".................._@@@:...........................",
"..................<@@@[...........................",
".................}@@@|&...........................",
".................1@@@2............................",
".................#@@@3............................",
"................4@@@56............................",
"................7@@@8.............................",
"................9@@@0.............................",
"...............a@@@bc.............................",
"...............d@@@e..............................",
"...............f@@@d..............................",
"..............cb@@@g..............................",
"..............h@@@i...............................",
"..............j@@@k...............................",
".............65@@@l...............................",
".............+@@@#................................",
".............$@@@%................................",
"............&*@@@=................................",
"............-@@@;.................................",
"............:@@@,.................................",
"...........')@@@!.................................",
"...........(@@@{].................................",
"...........m@@@m..................................",
"..........]{@@@(..................................",
"..........!@@@)'..................................",
".........._@@@:...................................",
"..........<@@@[...................................",
".........}@@@|&...................................",
".........1@@@2....................................",
".........#@@@3....................................",
"..................................................",
"..................................................",
".................................................."};
